G04 Layer: BottomSilkscreenLayer*
G04 EasyEDA v6.5.15, 2022-09-30 22:51:47*
G04 6c6a3108920e44c1b57cf9d56c6d46f1,9a5be75d700b4a6385dc1106f27949ae,10*
G04 Gerber Generator version 0.2*
G04 Scale: 100 percent, Rotated: No, Reflected: No *
G04 Dimensions in millimeters *
G04 leading zeros omitted , absolute positions ,4 integer and 5 decimal *
%FSLAX45Y45*%
%MOMM*%

%ADD10C,0.1524*%
%ADD11C,0.1000*%
%ADD12C,0.2540*%

%LPD*%
D10*
X2340000Y-584659D02*
G01*
X2340000Y-693762D01*
X2340000Y-584659D02*
G01*
X2293241Y-584659D01*
X2277656Y-589854D01*
X2272459Y-595050D01*
X2267264Y-605442D01*
X2267264Y-615833D01*
X2272459Y-626224D01*
X2277656Y-631418D01*
X2293241Y-636612D01*
X2340000Y-636612D01*
X2303632Y-636612D02*
G01*
X2267264Y-693762D01*
X2232974Y-652200D02*
G01*
X2170628Y-652200D01*
X2170628Y-641809D01*
X2175824Y-631418D01*
X2181019Y-626224D01*
X2191410Y-621027D01*
X2206995Y-621027D01*
X2217386Y-626224D01*
X2227778Y-636612D01*
X2232974Y-652200D01*
X2232974Y-662592D01*
X2227778Y-678177D01*
X2217386Y-688568D01*
X2206995Y-693762D01*
X2191410Y-693762D01*
X2181019Y-688568D01*
X2170628Y-678177D01*
X2136338Y-621027D02*
G01*
X2105164Y-693762D01*
X2073993Y-621027D02*
G01*
X2105164Y-693762D01*
X2034506Y-667786D02*
G01*
X2039703Y-672983D01*
X2034506Y-678177D01*
X2029312Y-672983D01*
X2034506Y-667786D01*
X1915012Y-605442D02*
G01*
X1904621Y-600245D01*
X1889036Y-584659D01*
X1889036Y-693762D01*
X1849549Y-667786D02*
G01*
X1854746Y-672983D01*
X1849549Y-678177D01*
X1844354Y-672983D01*
X1849549Y-667786D01*
X1778891Y-584659D02*
G01*
X1794476Y-589854D01*
X1804868Y-605442D01*
X1810064Y-631418D01*
X1810064Y-647004D01*
X1804868Y-672983D01*
X1794476Y-688568D01*
X1778891Y-693762D01*
X1768500Y-693762D01*
X1752914Y-688568D01*
X1742523Y-672983D01*
X1737326Y-647004D01*
X1737326Y-631418D01*
X1742523Y-605442D01*
X1752914Y-589854D01*
X1768500Y-584659D01*
X1778891Y-584659D01*
X1858431Y-334672D02*
G01*
X1899996Y-443776D01*
X1858431Y-334672D02*
G01*
X1816869Y-443776D01*
X1884410Y-407408D02*
G01*
X1832455Y-407408D01*
X2222063Y39349D02*
G01*
X2227259Y49740D01*
X2237651Y60131D01*
X2248039Y65326D01*
X2268821Y65326D01*
X2279213Y60131D01*
X2289604Y49740D01*
X2294801Y39349D01*
X2299995Y23761D01*
X2299995Y-2214D01*
X2294801Y-17800D01*
X2289604Y-28191D01*
X2279213Y-38582D01*
X2268821Y-43776D01*
X2248039Y-43776D01*
X2237651Y-38582D01*
X2227259Y-28191D01*
X2222063Y-17800D01*
X1517705Y335843D02*
G01*
X1528097Y330647D01*
X1538488Y320255D01*
X1543682Y309867D01*
X1543682Y289085D01*
X1538488Y278693D01*
X1528097Y268302D01*
X1517705Y263105D01*
X1502117Y257911D01*
X1476141Y257911D01*
X1460555Y263105D01*
X1450164Y268302D01*
X1439773Y278693D01*
X1434579Y289085D01*
X1434579Y309867D01*
X1439773Y320255D01*
X1450164Y330647D01*
X1460555Y335843D01*
X1476141Y335843D01*
X1476141Y309867D02*
G01*
X1476141Y335843D01*
X1543682Y370133D02*
G01*
X1434579Y370133D01*
X1543682Y370133D02*
G01*
X1434579Y442869D01*
X1543682Y442869D02*
G01*
X1434579Y442869D01*
X1543682Y477159D02*
G01*
X1434579Y477159D01*
X1543682Y477159D02*
G01*
X1543682Y513527D01*
X1538488Y529115D01*
X1528097Y539506D01*
X1517705Y544700D01*
X1502117Y549897D01*
X1476141Y549897D01*
X1460555Y544700D01*
X1450164Y539506D01*
X1439773Y529115D01*
X1434579Y513527D01*
X1434579Y477159D01*
X2549273Y-157048D02*
G01*
X2658376Y-198612D01*
X2549273Y-240174D02*
G01*
X2658376Y-198612D01*
X2575250Y-352397D02*
G01*
X2564858Y-347202D01*
X2554467Y-336811D01*
X2549273Y-326420D01*
X2549273Y-305638D01*
X2554467Y-295247D01*
X2564858Y-284855D01*
X2575250Y-279661D01*
X2590838Y-274464D01*
X2616814Y-274464D01*
X2632400Y-279661D01*
X2642791Y-284855D01*
X2653182Y-295247D01*
X2658376Y-305638D01*
X2658376Y-326420D01*
X2653182Y-336811D01*
X2642791Y-347202D01*
X2632400Y-352397D01*
X2575250Y-464619D02*
G01*
X2564858Y-459422D01*
X2554467Y-449033D01*
X2549273Y-438642D01*
X2549273Y-417860D01*
X2554467Y-407469D01*
X2564858Y-397078D01*
X2575250Y-391883D01*
X2590838Y-386687D01*
X2616814Y-386687D01*
X2632400Y-391883D01*
X2642791Y-397078D01*
X2653182Y-407469D01*
X2658376Y-417860D01*
X2658376Y-438642D01*
X2653182Y-449033D01*
X2642791Y-459422D01*
X2632400Y-464619D01*
X2008830Y214622D02*
G01*
X2008830Y131564D01*
X2013910Y115816D01*
X2019244Y110736D01*
X2029658Y105402D01*
X2040072Y105402D01*
X2050232Y110736D01*
X2055566Y115816D01*
X2060646Y131564D01*
X2060646Y141978D01*
X1974540Y214622D02*
G01*
X1974540Y105402D01*
X1974540Y214622D02*
G01*
X1927804Y214622D01*
X1912056Y209542D01*
X1906976Y204208D01*
X1901642Y193794D01*
X1901642Y178300D01*
X1906976Y167886D01*
X1912056Y162552D01*
X1927804Y157472D01*
X1974540Y157472D01*
X1867352Y193794D02*
G01*
X1857192Y199128D01*
X1841444Y214622D01*
X1841444Y105402D01*
D11*
X2310384Y745312D02*
G01*
X2310384Y668949D01*
X2310384Y745312D02*
G01*
X2277656Y745312D01*
X2266746Y741677D01*
X2263112Y738040D01*
X2259474Y730768D01*
X2259474Y723496D01*
X2263112Y716221D01*
X2266746Y712586D01*
X2277656Y708949D01*
X2310384Y708949D01*
X2284930Y708949D02*
G01*
X2259474Y668949D01*
X2231839Y727130D02*
G01*
X2231839Y730768D01*
X2228202Y738040D01*
X2224565Y741677D01*
X2217293Y745312D01*
X2202748Y745312D01*
X2195474Y741677D01*
X2191839Y738040D01*
X2188202Y730768D01*
X2188202Y723496D01*
X2191839Y716221D01*
X2199111Y705312D01*
X2235474Y668949D01*
X2184565Y668949D01*
X2785623Y306903D02*
G01*
X2709260Y306903D01*
X2785623Y306903D02*
G01*
X2785623Y339631D01*
X2781988Y350540D01*
X2778351Y354175D01*
X2771079Y357812D01*
X2763807Y357812D01*
X2756532Y354175D01*
X2752897Y350540D01*
X2749260Y339631D01*
X2749260Y306903D01*
X2749260Y332356D02*
G01*
X2709260Y357812D01*
X2771079Y381812D02*
G01*
X2774713Y389084D01*
X2785623Y399994D01*
X2709260Y399994D01*
X1854913Y837437D02*
G01*
X1858551Y844710D01*
X1865823Y851984D01*
X1873097Y855619D01*
X1887641Y855619D01*
X1894913Y851984D01*
X1902188Y844710D01*
X1905822Y837437D01*
X1909460Y826528D01*
X1909460Y808347D01*
X1905822Y797438D01*
X1902188Y790166D01*
X1894913Y782894D01*
X1887641Y779256D01*
X1873097Y779256D01*
X1865823Y782894D01*
X1858551Y790166D01*
X1854913Y797438D01*
X1827278Y837437D02*
G01*
X1827278Y841075D01*
X1823641Y848347D01*
X1820006Y851984D01*
X1812731Y855619D01*
X1798187Y855619D01*
X1790915Y851984D01*
X1787278Y848347D01*
X1783641Y841075D01*
X1783641Y833803D01*
X1787278Y826528D01*
X1794550Y815619D01*
X1830915Y779256D01*
X1780006Y779256D01*
X2562529Y474555D02*
G01*
X2569801Y470918D01*
X2577076Y463646D01*
X2580711Y456371D01*
X2580711Y441827D01*
X2577076Y434555D01*
X2569801Y427281D01*
X2562529Y423646D01*
X2551620Y420009D01*
X2533439Y420009D01*
X2522529Y423646D01*
X2515257Y427281D01*
X2507985Y434555D01*
X2504348Y441827D01*
X2504348Y456371D01*
X2507985Y463646D01*
X2515257Y470918D01*
X2522529Y474555D01*
X2566167Y498553D02*
G01*
X2569801Y505828D01*
X2580711Y516737D01*
X2504348Y516737D01*
D12*
X1869356Y472079D02*
G01*
X1869356Y261028D01*
X2011116Y260939D02*
G01*
X2011116Y472079D01*
D10*
X2202380Y458289D02*
G01*
X2073887Y458289D01*
X2073887Y641708D01*
X2202380Y641708D01*
X2297620Y458289D02*
G01*
X2426114Y458289D01*
X2426114Y641708D01*
X2297620Y641708D01*
X2658290Y147619D02*
G01*
X2658290Y276113D01*
X2841708Y276113D01*
X2841708Y147619D01*
X2658290Y52379D02*
G01*
X2658290Y-76113D01*
X2841708Y-76113D01*
X2841708Y52379D01*
X2021116Y569638D02*
G01*
X1880115Y569638D01*
X1880115Y750359D02*
G01*
X2021116Y750359D01*
X2036356Y735119D02*
G01*
X2036356Y584878D01*
X1658876Y569638D02*
G01*
X1799877Y569638D01*
X1799877Y750359D02*
G01*
X1658876Y750359D01*
X1643636Y735119D02*
G01*
X1643636Y584878D01*
X2630355Y381119D02*
G01*
X2630355Y240118D01*
X2449634Y240118D02*
G01*
X2449634Y381119D01*
X2464874Y396359D02*
G01*
X2615115Y396359D01*
X2630355Y18879D02*
G01*
X2630355Y159880D01*
X2449634Y159880D02*
G01*
X2449634Y18879D01*
X2464874Y3639D02*
G01*
X2615115Y3639D01*
D12*
G75*
G01*
X1980636Y492079D02*
G02*
X2010636Y472079I5007J-24989D01*
G75*
G01*
X2011116Y260939D02*
G02*
X1981116Y240939I-24993J4990D01*
G75*
G01*
X1899356Y492079D02*
G03*
X1869356Y472079I-5007J-24989D01*
G75*
G01*
X1869115Y261028D02*
G03*
X1899115Y241028I24987J4981D01*
D10*
G75*
G01*
X2021116Y750359D02*
G02*
X2036356Y735119I0J-15240D01*
G75*
G01*
X2036356Y584878D02*
G02*
X2021116Y569638I-15240J0D01*
G75*
G01*
X1658877Y750359D02*
G03*
X1643637Y735119I0J-15240D01*
G75*
G01*
X1643637Y584878D02*
G03*
X1658877Y569638I15240J0D01*
G75*
G01*
X2449634Y381119D02*
G02*
X2464874Y396359I15240J0D01*
G75*
G01*
X2615115Y396359D02*
G02*
X2630355Y381119I0J-15240D01*
G75*
G01*
X2449634Y18880D02*
G03*
X2464874Y3640I15240J0D01*
G75*
G01*
X2615115Y3640D02*
G03*
X2630355Y18880I0J15240D01*
M02*
