G04 Layer: BottomSolderMaskLayer*
G04 EasyEDA v6.5.15, 2022-09-30 22:51:47*
G04 6c6a3108920e44c1b57cf9d56c6d46f1,9a5be75d700b4a6385dc1106f27949ae,10*
G04 Gerber Generator version 0.2*
G04 Scale: 100 percent, Rotated: No, Reflected: No *
G04 Dimensions in millimeters *
G04 leading zeros omitted , absolute positions ,4 integer and 5 decimal *
%FSLAX45Y45*%
%MOMM*%

%AMMACRO1*4,1,38,-0.0028,-0.5842,-0.0104,-0.5817,-0.0181,-0.5766,-0.0175,-0.5774,-0.4747,-0.1583,-0.4753,-0.1575,-0.4803,-0.1524,-0.4803,-0.1473,-0.4829,-0.1448,-0.4829,-0.1397,-0.4823,-0.1405,-0.4823,0.558,-0.4829,0.5588,-0.4829,0.5664,-0.4778,0.574,-0.4727,0.5791,-0.4651,0.5842,-0.4575,0.5842,-0.4569,0.5834,0.4575,0.5834,0.4569,0.5842,0.4645,0.5842,0.4722,0.5791,0.4772,0.574,0.4823,0.5664,0.4823,0.5588,0.4829,0.558,0.4829,-0.1405,0.4823,-0.1397,0.4823,-0.1448,0.4798,-0.1473,0.4798,-0.1524,0.4747,-0.1575,0.4753,-0.1583,0.0181,-0.5774,0.0175,-0.5766,0.0099,-0.5817,0.0023,-0.5842,-0.0028,-0.5842,0*%
%AMMACRO2*4,1,33,-0.4569,-0.5656,-0.4575,-0.5647,-0.4651,-0.5647,-0.4727,-0.5597,-0.4778,-0.5546,-0.4829,-0.547,-0.4829,-0.5393,-0.4823,-0.5402,-0.4823,0.5393,-0.4829,0.5402,-0.4803,0.5503,-0.4727,0.5605,-0.4626,0.5656,-0.4499,0.5656,-0.4397,0.5579,-0.4391,0.5597,0.0003,0.1558,0.4397,0.5597,0.4391,0.5579,0.4493,0.5656,0.462,0.5656,0.4722,0.5605,0.4798,0.5503,0.4823,0.5402,0.4829,0.5393,0.4829,-0.5402,0.4823,-0.5393,0.4823,-0.547,0.4772,-0.5546,0.4722,-0.5597,0.4645,-0.5647,0.4569,-0.5647,0.4575,-0.5656,-0.4569,-0.5656,0*%
%AMMACRO3*1,1,$1,$2,$3*1,1,$1,$4,$5*1,1,$1,0-$2,0-$3*1,1,$1,0-$4,0-$5*20,1,$1,$2,$3,$4,$5,0*20,1,$1,$4,$5,0-$2,0-$3,0*20,1,$1,0-$2,0-$3,0-$4,0-$5,0*20,1,$1,0-$4,0-$5,$2,$3,0*4,1,4,$2,$3,$4,$5,0-$2,0-$3,0-$4,0-$5,$2,$3,0*%
%ADD10MACRO1*%
%ADD11MACRO2*%
%ADD12MACRO3,0.1016X0.5663X-0.6885X0.5663X0.6885*%
%ADD13MACRO3,0.1016X-0.5663X-0.6885X-0.5663X0.6885*%
%ADD14MACRO3,0.1016X-0.6885X-0.5663X0.6885X-0.5663*%
%ADD15MACRO3,0.1016X-0.6885X0.5663X0.6885X0.5663*%
%ADD16MACRO3,0.1016X-0.705X0.675X-0.705X-0.675*%
%ADD17MACRO3,0.1016X0.705X0.675X0.705X-0.675*%
%ADD18MACRO3,0.1016X-0.675X-0.705X0.675X-0.705*%
%ADD19MACRO3,0.1016X-0.675X0.705X0.675X0.705*%

%LPD*%
G36*
X1849628Y-282194D02*
G01*
X1834387Y-281178D01*
X1833626Y-281178D01*
X1818639Y-278384D01*
X1817878Y-278384D01*
X1803400Y-273812D01*
X1802637Y-273557D01*
X1788668Y-267207D01*
X1788160Y-266954D01*
X1775205Y-259079D01*
X1774697Y-258571D01*
X1762505Y-249173D01*
X1750821Y-237489D01*
X1741423Y-225297D01*
X1740915Y-224789D01*
X1733042Y-211836D01*
X1732787Y-211328D01*
X1726437Y-197357D01*
X1726184Y-196595D01*
X1721612Y-182118D01*
X1721612Y-181355D01*
X1718818Y-166370D01*
X1718818Y-165607D01*
X1717802Y-150368D01*
X1717802Y-149860D01*
X1718818Y-134620D01*
X1718818Y-133857D01*
X1721612Y-118871D01*
X1721612Y-118110D01*
X1726184Y-103631D01*
X1726437Y-102870D01*
X1732787Y-88900D01*
X1733042Y-88392D01*
X1740915Y-75437D01*
X1741423Y-74929D01*
X1750821Y-62737D01*
X1762505Y-51054D01*
X1774697Y-41655D01*
X1775205Y-41147D01*
X1788160Y-33273D01*
X1788668Y-33020D01*
X1802637Y-26670D01*
X1803400Y-26415D01*
X1817878Y-21844D01*
X1818639Y-21844D01*
X1833626Y-19050D01*
X1834387Y-19050D01*
X1849628Y-18034D01*
X1850136Y-18034D01*
X1865376Y-19050D01*
X1866137Y-19050D01*
X1881123Y-21844D01*
X1881886Y-21844D01*
X1896363Y-26415D01*
X1897126Y-26670D01*
X1911095Y-33020D01*
X1911604Y-33273D01*
X1924557Y-41147D01*
X1925065Y-41655D01*
X1937257Y-51054D01*
X1948942Y-62737D01*
X1958339Y-74929D01*
X1958847Y-75437D01*
X1966721Y-88392D01*
X1966976Y-88900D01*
X1973326Y-102870D01*
X1973579Y-103631D01*
X1978152Y-118110D01*
X1978152Y-118871D01*
X1980945Y-133857D01*
X1980945Y-134620D01*
X1981962Y-149860D01*
X1981962Y-150368D01*
X1980945Y-165607D01*
X1980945Y-166370D01*
X1978152Y-181355D01*
X1978152Y-182118D01*
X1973579Y-196595D01*
X1973326Y-197357D01*
X1966976Y-211328D01*
X1966721Y-211836D01*
X1958847Y-224789D01*
X1958339Y-225297D01*
X1948942Y-237489D01*
X1937257Y-249173D01*
X1925065Y-258571D01*
X1924557Y-259079D01*
X1911604Y-266954D01*
X1911095Y-267207D01*
X1897126Y-273557D01*
X1896363Y-273812D01*
X1881886Y-278384D01*
X1881123Y-278384D01*
X1866137Y-281178D01*
X1865376Y-281178D01*
X1850136Y-282194D01*
G37*
G36*
X2249678Y117855D02*
G01*
X2234437Y118871D01*
X2233676Y118871D01*
X2218689Y121665D01*
X2217928Y121665D01*
X2203450Y126237D01*
X2202687Y126492D01*
X2188718Y132842D01*
X2188210Y133095D01*
X2175255Y140970D01*
X2174747Y141478D01*
X2162555Y150876D01*
X2150871Y162560D01*
X2141473Y174752D01*
X2140965Y175260D01*
X2133092Y188213D01*
X2132837Y188721D01*
X2126487Y202692D01*
X2126234Y203454D01*
X2121662Y217931D01*
X2121662Y218694D01*
X2118868Y233679D01*
X2118868Y234442D01*
X2117852Y249681D01*
X2117852Y250189D01*
X2118868Y265429D01*
X2118868Y266192D01*
X2121662Y281178D01*
X2121662Y281939D01*
X2126234Y296418D01*
X2126487Y297179D01*
X2132837Y311150D01*
X2133092Y311657D01*
X2140965Y324612D01*
X2141473Y325120D01*
X2150871Y337312D01*
X2162555Y348995D01*
X2174747Y358394D01*
X2175255Y358902D01*
X2188210Y366776D01*
X2188718Y367029D01*
X2202687Y373379D01*
X2203450Y373634D01*
X2217928Y378205D01*
X2218689Y378205D01*
X2233676Y381000D01*
X2234437Y381000D01*
X2249678Y382015D01*
X2250186Y382015D01*
X2265426Y381000D01*
X2266187Y381000D01*
X2281173Y378205D01*
X2281936Y378205D01*
X2296413Y373634D01*
X2297176Y373379D01*
X2311145Y367029D01*
X2311654Y366776D01*
X2324607Y358902D01*
X2325115Y358394D01*
X2337307Y348995D01*
X2348992Y337312D01*
X2358389Y325120D01*
X2358897Y324612D01*
X2366771Y311657D01*
X2367026Y311150D01*
X2373376Y297179D01*
X2373629Y296418D01*
X2378202Y281939D01*
X2378202Y281178D01*
X2380995Y266192D01*
X2380995Y265429D01*
X2382012Y250189D01*
X2382012Y249681D01*
X2380995Y234442D01*
X2380995Y233679D01*
X2378202Y218694D01*
X2378202Y217931D01*
X2373629Y203454D01*
X2373376Y202692D01*
X2367026Y188721D01*
X2366771Y188213D01*
X2358897Y175260D01*
X2358389Y174752D01*
X2348992Y162560D01*
X2337307Y150876D01*
X2325115Y141478D01*
X2324607Y140970D01*
X2311654Y133095D01*
X2311145Y132842D01*
X2297176Y126492D01*
X2296413Y126237D01*
X2281936Y121665D01*
X2281173Y121665D01*
X2266187Y118871D01*
X2265426Y118871D01*
X2250186Y117855D01*
G37*
G36*
X1699768Y267970D02*
G01*
X1684528Y268986D01*
X1683765Y268986D01*
X1668779Y271779D01*
X1668018Y271779D01*
X1653539Y276352D01*
X1652778Y276605D01*
X1638807Y282955D01*
X1638300Y283210D01*
X1625345Y291084D01*
X1624837Y291592D01*
X1612645Y300989D01*
X1600962Y312673D01*
X1591563Y324865D01*
X1591055Y325373D01*
X1583181Y338328D01*
X1582928Y338836D01*
X1576578Y352805D01*
X1576323Y353568D01*
X1571752Y368045D01*
X1571752Y368807D01*
X1568957Y383794D01*
X1568957Y384555D01*
X1567942Y399795D01*
X1567942Y400304D01*
X1568957Y415544D01*
X1568957Y416305D01*
X1571752Y431292D01*
X1571752Y432054D01*
X1576323Y446531D01*
X1576578Y447294D01*
X1582928Y461263D01*
X1583181Y461771D01*
X1591055Y474726D01*
X1591563Y475234D01*
X1600962Y487426D01*
X1612645Y499110D01*
X1624837Y508507D01*
X1625345Y509015D01*
X1638300Y516889D01*
X1638807Y517144D01*
X1652778Y523494D01*
X1653539Y523747D01*
X1668018Y528320D01*
X1668779Y528320D01*
X1683765Y531113D01*
X1684528Y531113D01*
X1699768Y532129D01*
X1700276Y532129D01*
X1715515Y531113D01*
X1716278Y531113D01*
X1731263Y528320D01*
X1732026Y528320D01*
X1746504Y523747D01*
X1747265Y523494D01*
X1761236Y517144D01*
X1761744Y516889D01*
X1774697Y509015D01*
X1775205Y508507D01*
X1787397Y499110D01*
X1799081Y487426D01*
X1808479Y475234D01*
X1808987Y474726D01*
X1816862Y461771D01*
X1817115Y461263D01*
X1823465Y447294D01*
X1823720Y446531D01*
X1828292Y432054D01*
X1828292Y431292D01*
X1831086Y416305D01*
X1831086Y415544D01*
X1832102Y400304D01*
X1832102Y399795D01*
X1831086Y384555D01*
X1831086Y383794D01*
X1828292Y368807D01*
X1828292Y368045D01*
X1823720Y353568D01*
X1823465Y352805D01*
X1817115Y338836D01*
X1816862Y338328D01*
X1808987Y325373D01*
X1808479Y324865D01*
X1799081Y312673D01*
X1787397Y300989D01*
X1775205Y291592D01*
X1774697Y291084D01*
X1761744Y283210D01*
X1761236Y282955D01*
X1747265Y276605D01*
X1746504Y276352D01*
X1732026Y271779D01*
X1731263Y271779D01*
X1716278Y268986D01*
X1715515Y268986D01*
X1700276Y267970D01*
G37*
G36*
X2399792Y-432054D02*
G01*
X2384552Y-431037D01*
X2383789Y-431037D01*
X2368804Y-428244D01*
X2368042Y-428244D01*
X2353563Y-423671D01*
X2352802Y-423418D01*
X2338831Y-417068D01*
X2338323Y-416813D01*
X2325370Y-408939D01*
X2324862Y-408431D01*
X2312670Y-399034D01*
X2300986Y-387350D01*
X2291587Y-375157D01*
X2291079Y-374650D01*
X2283205Y-361695D01*
X2282952Y-361187D01*
X2276602Y-347218D01*
X2276347Y-346455D01*
X2271776Y-331978D01*
X2271776Y-331215D01*
X2268981Y-316229D01*
X2268981Y-315468D01*
X2267965Y-300228D01*
X2267965Y-299720D01*
X2268981Y-284479D01*
X2268981Y-283718D01*
X2271776Y-268731D01*
X2271776Y-267970D01*
X2276347Y-253492D01*
X2276602Y-252729D01*
X2282952Y-238760D01*
X2283205Y-238252D01*
X2291079Y-225297D01*
X2291587Y-224789D01*
X2300986Y-212597D01*
X2312670Y-200913D01*
X2324862Y-191515D01*
X2325370Y-191007D01*
X2338323Y-183134D01*
X2338831Y-182879D01*
X2352802Y-176529D01*
X2353563Y-176276D01*
X2368042Y-171704D01*
X2368804Y-171704D01*
X2383789Y-168910D01*
X2384552Y-168910D01*
X2399792Y-167894D01*
X2400300Y-167894D01*
X2415539Y-168910D01*
X2416302Y-168910D01*
X2431287Y-171704D01*
X2432050Y-171704D01*
X2446527Y-176276D01*
X2447290Y-176529D01*
X2461259Y-182879D01*
X2461768Y-183134D01*
X2474722Y-191007D01*
X2475229Y-191515D01*
X2487422Y-200913D01*
X2499106Y-212597D01*
X2508504Y-224789D01*
X2509011Y-225297D01*
X2516886Y-238252D01*
X2517140Y-238760D01*
X2523490Y-252729D01*
X2523743Y-253492D01*
X2528315Y-267970D01*
X2528315Y-268731D01*
X2531109Y-283718D01*
X2531109Y-284479D01*
X2532125Y-299720D01*
X2532125Y-300228D01*
X2531109Y-315468D01*
X2531109Y-316229D01*
X2528315Y-331215D01*
X2528315Y-331978D01*
X2523743Y-346455D01*
X2523490Y-347218D01*
X2517140Y-361187D01*
X2516886Y-361695D01*
X2509011Y-374650D01*
X2508504Y-375157D01*
X2499106Y-387350D01*
X2487422Y-399034D01*
X2475229Y-408431D01*
X2474722Y-408939D01*
X2461768Y-416813D01*
X2461259Y-417068D01*
X2447290Y-423418D01*
X2446527Y-423671D01*
X2432050Y-428244D01*
X2431287Y-428244D01*
X2416302Y-431037D01*
X2415539Y-431037D01*
X2400300Y-432054D01*
G37*
D10*
G01*
X1940024Y410799D03*
D11*
G01*
X1940024Y317413D03*
D12*
G01*
X2153373Y549998D03*
D13*
G01*
X2346627Y549998D03*
D14*
G01*
X2749999Y196626D03*
D15*
G01*
X2749999Y3373D03*
D16*
G01*
X1942995Y659998D03*
D17*
G01*
X1736996Y659998D03*
D18*
G01*
X2539994Y302999D03*
D19*
G01*
X2539994Y97000D03*
M02*
