G04 Layer: TopLayer*
G04 EasyEDA v6.5.15, 2022-09-30 22:51:47*
G04 6c6a3108920e44c1b57cf9d56c6d46f1,9a5be75d700b4a6385dc1106f27949ae,10*
G04 Gerber Generator version 0.2*
G04 Scale: 100 percent, Rotated: No, Reflected: No *
G04 Dimensions in millimeters *
G04 leading zeros omitted , absolute positions ,4 integer and 5 decimal *
%FSLAX45Y45*%
%MOMM*%

%ADD10C,0.2500*%
%ADD11C,0.4000*%
%ADD12C,0.5200*%

%LPD*%
D10*
X2098540Y-98920D02*
G01*
X2098540Y1079D01*
X2098540Y1079D02*
G01*
X1998540Y-98920D01*
X2198540Y101079D02*
G01*
X2098540Y1079D01*
X1998540Y1079D02*
G01*
X2098540Y101079D01*
X1900001Y-99999D02*
G01*
X1900001Y-97459D01*
X1998540Y1079D01*
X2098540Y-198920D02*
G01*
X1998540Y-198920D01*
X1998540Y-198920D02*
G01*
X2098540Y-98920D01*
X1998540Y-98920D02*
G01*
X2098540Y-198920D01*
X2098540Y-98920D02*
G01*
X2298539Y-98920D01*
X1998540Y-98920D02*
G01*
X1998540Y-198920D01*
X1998540Y-98920D02*
G01*
X2098540Y-98920D01*
X1898540Y-198920D02*
G01*
X1998540Y-98920D01*
X1998540Y-198920D02*
G01*
X1898540Y-198920D01*
X1798540Y-98920D02*
G01*
X1898540Y1079D01*
X1798540Y-98920D02*
G01*
X1898540Y-198920D01*
X1798540Y-198894D02*
G01*
X1898515Y-198894D01*
X1798540Y-98920D02*
G01*
X1798540Y-198894D01*
X1798540Y1079D02*
G01*
X1798540Y-98920D01*
X1798540Y101079D02*
G01*
X1798540Y1079D01*
X1798540Y101079D02*
G01*
X1898540Y1079D01*
X1798540Y1079D02*
G01*
X1898540Y101079D01*
X1898540Y1079D02*
G01*
X1798540Y1079D01*
X1898540Y101079D02*
G01*
X1898540Y1079D01*
X1898540Y1079D02*
G01*
X1998540Y101079D01*
X2198540Y1079D02*
G01*
X2198540Y-198920D01*
X2098540Y-198920D02*
G01*
X2298539Y1079D01*
X2098540Y1079D02*
G01*
X2298539Y-198920D01*
X2098540Y-198920D02*
G01*
X2098540Y-98920D01*
X2198540Y-198920D02*
G01*
X2098540Y-198920D01*
X2298539Y-198920D02*
G01*
X2198540Y-198920D01*
X2298539Y-98920D02*
G01*
X2298539Y-198920D01*
X2298539Y1079D02*
G01*
X2298539Y-98920D01*
X2198540Y101079D02*
G01*
X2298539Y201079D01*
X2199894Y199897D02*
G01*
X2298445Y101092D01*
X2199894Y199897D02*
G01*
X2198623Y101092D01*
X2298539Y101079D02*
G01*
X2298539Y201079D01*
X2298539Y101079D02*
G01*
X2298539Y1079D01*
X2198540Y101079D02*
G01*
X2298539Y101079D01*
X2298539Y101079D02*
G01*
X2198540Y1079D01*
X2298539Y1079D02*
G01*
X2198540Y101079D01*
X2198540Y1079D02*
G01*
X2298539Y1079D01*
X2098540Y1079D02*
G01*
X2198540Y1079D01*
X2198540Y101079D02*
G01*
X2198540Y1079D01*
X2098540Y201079D02*
G01*
X2198540Y101079D01*
X1998540Y101079D02*
G01*
X2098540Y201079D01*
X2198540Y301078D02*
G01*
X2298539Y201079D01*
X2200000Y199999D02*
G01*
X2200000Y202539D01*
X2298539Y301078D01*
X2098547Y300989D02*
G01*
X2199894Y199897D01*
X2098540Y201079D02*
G01*
X2198540Y301078D01*
X1998540Y301078D02*
G01*
X2098540Y201079D01*
X1998540Y201079D02*
G01*
X2098540Y301078D01*
X1998540Y201079D02*
G01*
X1798540Y201079D01*
X1898540Y301078D02*
G01*
X1898540Y101079D01*
X1798540Y101079D02*
G01*
X1998540Y301078D01*
X1798540Y301078D02*
G01*
X1998540Y101079D01*
X1798540Y201079D02*
G01*
X1798540Y301078D01*
X1798540Y101079D02*
G01*
X1798540Y201079D01*
X1898540Y101079D02*
G01*
X1798540Y101079D01*
X1998540Y101079D02*
G01*
X1998540Y201079D01*
X1898540Y101079D02*
G01*
X1998540Y101079D01*
X2098540Y301078D02*
G01*
X2098540Y201079D01*
X1998540Y201079D02*
G01*
X1998540Y301078D01*
X2098540Y201079D02*
G01*
X1998540Y201079D01*
X2199894Y199897D02*
G01*
X2098547Y201168D01*
X2199894Y199897D02*
G01*
X2198623Y300989D01*
X2298445Y201168D02*
G01*
X2199894Y199897D01*
X2298539Y301078D02*
G01*
X2298539Y201079D01*
X2198540Y301078D02*
G01*
X2298539Y301078D01*
X2098540Y301078D02*
G01*
X2198540Y301078D01*
X1998540Y301078D02*
G01*
X2098540Y301078D01*
X1898540Y301078D02*
G01*
X1998540Y301078D01*
X1798540Y301078D02*
G01*
X1898540Y301078D01*
D11*
G01*
X2298539Y-198920D03*
G01*
X2198540Y-198920D03*
G01*
X2098540Y-198920D03*
G01*
X1998540Y-198920D03*
G01*
X1898540Y-198920D03*
G01*
X1798540Y-198894D03*
G01*
X2298539Y-98920D03*
G01*
X2098540Y-98920D03*
G01*
X1998540Y-98920D03*
G01*
X1798540Y-98920D03*
G01*
X2298539Y1079D03*
G01*
X2198540Y1079D03*
G01*
X2098540Y1079D03*
G01*
X1998540Y1079D03*
G01*
X1898540Y1079D03*
G01*
X1798540Y1079D03*
G01*
X2298539Y101079D03*
G01*
X2198540Y101079D03*
G01*
X2098540Y101079D03*
G01*
X1998540Y101079D03*
G01*
X1898540Y101079D03*
G01*
X1798540Y101079D03*
G01*
X2298539Y201079D03*
G01*
X2098540Y201079D03*
G01*
X1998540Y201079D03*
G01*
X1798540Y201079D03*
G01*
X2298539Y301078D03*
G01*
X2198540Y301078D03*
G01*
X2098540Y301078D03*
G01*
X1998540Y301078D03*
G01*
X1898540Y301078D03*
G01*
X1798540Y301078D03*
D12*
G01*
X1900001Y-99999D03*
G01*
X2200000Y199999D03*
M02*
